<svg width="887" height="225" viewBox="0 0 887 225" fill="none" xmlns="http://www.w3.org/2000/svg">
<path d="M231.713 131.253C229.533 127.745 226.448 124.884 222.782 122.985C222.007 122.577 221.161 122.207 220.257 121.871H220.129C219.06 121.871 218.039 121.548 217.178 120.951C215.569 120.599 213.918 120.42 212.26 120.42C206.979 120.42 202.024 122.167 197.926 125.471C197.007 126.212 195.853 126.621 194.673 126.621C193.094 126.621 191.62 125.919 190.631 124.692C189.761 123.614 189.362 122.263 189.511 120.885C189.655 119.503 190.331 118.267 191.409 117.394C197.284 112.653 204.684 110.042 212.25 110.042C214.663 110.042 217.076 110.306 219.443 110.834C223.874 107.326 226.676 102.352 227.375 96.7079C227.487 95.8179 227.543 94.921 227.543 94.0342C227.543 88.8655 225.65 83.8547 222.212 79.9383C218.747 75.9957 213.971 73.4639 208.759 72.8173C208.126 72.7383 207.487 72.6859 206.85 72.6657C206.382 73.1966 205.894 73.7206 205.39 74.2285C203.346 76.2855 200.827 78.1514 197.686 79.9415C195.319 81.2834 192.635 82.5491 189.711 83.7031C184.645 85.6976 180.676 86.6501 180.636 86.657C180.254 86.7493 179.845 86.7957 179.436 86.7957C177.033 86.7957 174.963 85.1672 174.393 82.8329C174.066 81.4818 174.287 80.0903 175.009 78.91C175.711 77.7532 176.809 76.9358 178.114 76.5927L178.216 76.5698L179.159 79.0193L178.51 76.4908L179.443 76.2368C180.28 75.9994 181.467 75.6402 182.871 75.1658C185.41 74.2988 189.151 72.8582 192.56 70.9197C194.808 69.6439 196.697 68.2625 198.016 66.9312C198.771 66.1661 199.509 65.3225 200.215 64.4159L200.551 64.0003C203.791 59.7183 205.667 54.3351 205.663 49.0373C205.657 43.565 203.725 38.5115 200.076 34.4169C195.741 29.5646 189.52 26.7788 183.006 26.7788C177.385 26.7788 171.979 28.8422 167.786 32.5873C166.833 33.4378 165.607 33.9058 164.331 33.9058C162.851 33.9058 161.439 33.2729 160.457 32.1689C159.538 31.137 159.073 29.8052 159.148 28.4238C159.228 27.0392 159.841 25.7699 160.873 24.8468C163.121 22.8394 165.61 21.1577 168.289 19.8328C167.63 14.878 165.362 10.2695 161.795 6.70262C157.473 2.3807 151.731 0.00366335 145.625 0.000907898C139.517 0.00366335 133.774 2.3807 129.453 6.70262C125.134 11.0213 122.758 16.7673 122.754 22.872V60.1565H144.063C146.924 60.1565 149.252 62.4871 149.252 65.345C149.252 68.206 146.924 70.5339 144.063 70.5339H122.754V96.1321C128.935 96.4218 134.164 97.2498 138.683 98.6473C144.073 100.305 148.5 102.857 151.833 106.223C153.801 108.211 155.462 110.558 156.774 113.199C158.479 116.65 159.392 120.164 159.999 122.841C160.332 124.325 160.622 125.791 160.902 127.222C161.383 129.645 161.835 131.933 162.435 133.96C162.986 135.826 163.612 137.322 164.357 138.539C165.277 140.055 166.388 141.196 167.844 142.139C169.918 143.464 172.654 144.334 176.205 144.796C177.57 144.967 178.793 145.666 179.643 146.761C180.493 147.862 180.863 149.227 180.688 150.598C180.352 153.183 178.14 155.128 175.545 155.128L174.873 155.081C170.531 154.524 166.921 153.45 163.833 151.801C160.892 150.238 158.436 148.115 156.537 145.501C155.43 143.991 154.507 142.32 153.712 140.405C152.891 138.427 152.242 136.294 151.602 133.489C151.276 132.038 150.993 130.588 150.709 129.15C150.419 127.687 150.132 126.233 149.802 124.815C148.853 120.668 147.728 117.817 146.153 115.569C145.084 114.036 143.796 112.75 142.207 111.639C140.051 110.136 137.39 108.985 134.074 108.121C130.873 107.287 127.076 106.746 122.754 106.519V201.741C122.757 207.846 125.134 213.592 129.449 217.914C133.774 222.233 139.517 224.609 145.625 224.613C151.731 224.61 157.473 222.233 161.795 217.914C166.114 213.589 168.494 207.846 168.494 201.741C168.497 198.434 167.59 194.805 166.002 191.782C164.195 188.323 161.68 185.772 158.532 184.19C156.098 182.977 153.405 182.384 150.297 182.377C147.439 182.377 145.111 180.052 145.111 177.195C145.111 174.329 147.439 172.002 150.3 172.002C153.844 172.002 157.206 172.566 160.295 173.68C163.186 174.719 165.85 176.245 168.21 178.21C172.331 181.655 175.46 186.379 177.259 191.871C178.314 195.098 178.868 198.51 178.868 201.741C178.871 204.318 178.575 206.876 177.988 209.375C180.382 210.193 182.917 210.621 185.422 210.621C191.019 210.618 196.413 208.564 200.599 204.839C205.472 200.504 208.267 194.273 208.271 187.743C208.271 184.977 207.776 182.268 206.81 179.686C205.828 177.072 204.371 174.669 202.488 172.549C200.589 170.41 200.784 167.126 202.917 165.224C203.873 164.377 205.096 163.916 206.365 163.916C207.848 163.916 209.262 164.548 210.248 165.659L210.608 166.071L210.845 166.111C211.007 166.134 211.109 166.144 211.349 166.154C211.56 166.157 211.854 166.16 212.259 166.16C218.364 166.157 224.11 163.78 228.433 159.462C232.751 155.137 235.128 149.394 235.131 143.289C235.128 139.02 233.944 134.856 231.713 131.253Z" fill="white"/>
<path d="M89.5084 0C83.3996 0.00275545 77.6572 2.37979 73.3353 6.70171C69.7684 10.2686 67.5002 14.8808 66.8412 19.8287C69.5149 21.154 72.0035 22.8316 74.2552 24.8427L74.6212 25.2022L75.0005 25.6371L75.762 26.4743C76.4508 27.2192 77.4529 28.2874 78.6791 29.5136C80.8977 31.7423 84.2965 34.9533 87.8997 37.6132C90.2896 39.3804 92.5279 40.7186 94.3805 41.4869C95.6664 42.021 96.5628 42.202 97.09 42.2617C98.4714 42.4164 99.7077 43.0989 100.571 44.1799C101.438 45.2614 101.83 46.6162 101.675 47.9944C101.382 50.6249 99.1667 52.6098 96.5229 52.6098L95.9493 52.5772C94.1757 52.3792 92.3626 51.8846 90.4044 51.0704C88.7759 50.3944 87.1144 49.5246 85.3174 48.4068C82.499 46.6497 79.4561 44.3287 76.2749 41.5136C71.6173 37.3864 68.0536 33.4369 67.1369 32.4018C62.967 28.7724 57.6426 26.7747 52.1211 26.7747C45.61 26.7779 39.3896 29.5604 35.058 34.4128C31.3097 38.6029 29.2495 44.0123 29.2463 49.633C29.2463 53.4502 30.1988 57.1889 32.0119 60.5349H32.0743C33.7855 60.5349 35.5062 60.6635 37.1843 60.9239C40.016 61.3657 41.9577 64.0192 41.5223 66.8444C41.1232 69.3927 38.9708 71.2421 36.3995 71.2421C36.1359 71.2421 35.8654 71.2219 35.5953 71.1824C34.4482 71.0015 33.261 70.9124 32.0743 70.9124C31.8006 70.9124 31.5306 70.9156 31.2532 70.922C25.2996 71.1365 19.735 73.6187 15.5945 77.914C11.4673 82.1996 9.19585 87.8299 9.19585 93.7638C9.19585 94.0375 9.19906 94.3144 9.20595 94.5913C9.42317 100.72 12.1102 106.502 16.6232 110.639C18.6934 110.244 20.7899 110.042 22.8702 110.042C30.4459 110.042 37.8465 112.653 43.7179 117.394L44.2323 117.862L44.6249 118.304C44.8031 118.498 45.0764 118.785 45.436 119.148C46.4546 120.176 47.5558 121.185 48.7062 122.151C51.2545 124.287 55.2927 127.231 60.083 129.133C63.3496 130.429 66.5638 131.085 69.6334 131.085C72.4945 131.085 74.8219 133.412 74.8219 136.273C74.8219 139.135 72.4945 141.462 69.6334 141.462C65.232 141.459 60.7324 140.556 56.2557 138.776C52.7742 137.392 49.2963 135.479 45.9145 133.089C41.2169 129.763 37.9926 126.424 36.9115 125.24C32.867 122.088 28.0174 120.42 22.8716 120.42C19.1632 120.42 15.6225 121.281 12.349 122.985C8.68655 124.884 5.59769 127.745 3.41859 131.253C1.18668 134.856 0.00367393 139.02 0 143.292C0.00367393 149.394 2.38025 155.137 6.69849 159.461C11.0204 163.78 16.766 166.157 22.8716 166.16C23.6266 166.16 23.9894 166.157 24.2925 166.124L24.4969 166.097L24.8826 165.659C25.8681 164.548 27.2826 163.915 28.766 163.915C30.0353 163.915 31.2583 164.377 32.2107 165.224C33.2459 166.143 33.8626 167.413 33.9448 168.801C34.0238 170.182 33.5623 171.514 32.6397 172.549C30.7604 174.668 29.3037 177.075 28.321 179.689C27.352 182.271 26.8606 184.977 26.8606 187.743C26.8633 194.27 29.6592 200.501 34.5281 204.839C38.7182 208.564 44.1115 210.618 49.7087 210.621C52.2144 210.621 54.7494 210.192 57.1425 209.375C56.5556 206.883 56.2621 204.325 56.2621 201.74C56.2621 197.609 57.1393 193.347 58.7939 189.401C60.6534 184.964 63.4616 181.097 66.917 178.216C67.8497 177.438 69.0299 177.01 70.2396 177.01C71.7863 177.01 73.2361 177.689 74.2253 178.875C76.0517 181.071 75.7583 184.348 73.5663 186.181C71.3803 188.001 69.5806 190.5 68.3576 193.417C67.2467 196.064 66.6336 199.021 66.6368 201.741C66.6368 207.846 69.0166 213.589 73.3353 217.914C77.6572 222.233 83.4001 224.609 89.5084 224.613C95.6136 224.61 101.36 222.233 105.682 217.914C109.997 213.592 112.374 207.846 112.377 201.741V160.161H93.0124C90.1546 160.161 87.8271 157.837 87.8271 154.976C87.8271 152.115 90.1546 149.787 93.0124 149.787H112.377V118.251C110.174 117.237 107.768 116.702 105.335 116.699C103.627 116.699 101.92 116.963 100.262 117.477C95.9231 118.977 91.5488 119.755 87.339 119.755C79.3252 119.755 72.0233 116.907 66.7356 111.738C61.7078 106.832 58.8201 100.068 58.8173 93.1746C58.8141 87.0464 60.9992 81.1884 65.1466 76.2336C66.1353 75.0465 67.5861 74.3709 69.1287 74.3709C70.342 74.3709 71.5222 74.7998 72.4517 75.5773C74.6474 77.4138 74.9408 80.6873 73.1112 82.883C70.5202 85.9948 69.2017 89.4593 69.1985 93.1782C69.1985 97.2825 70.9422 101.344 73.9847 104.314C77.3868 107.62 82.0053 109.371 87.3426 109.378C90.4085 109.378 93.6618 108.787 97.0078 107.627C99.8198 106.744 102.569 106.325 105.338 106.325C107.728 106.325 110.082 106.635 112.377 107.258V22.8716C112.373 16.7664 109.997 11.0204 105.682 6.70217C101.36 2.37979 95.6136 0.00321469 89.5084 0Z" fill="url(#paint0_linear_2_10)"/>
<path d="M339.9 165L319.95 126.9H319.8V165H286.5V58.8H336C344.6 58.8 351.95 60.35 358.05 63.45C364.15 66.45 368.7 70.6 371.7 75.9C374.8 81.1 376.35 87 376.35 93.6C376.35 100.7 374.35 107 370.35 112.5C366.45 118 360.8 121.95 353.4 124.35L376.5 165H339.9ZM319.8 104.7H333C336.2 104.7 338.6 104 340.2 102.6C341.8 101.1 342.6 98.8 342.6 95.7C342.6 92.9 341.75 90.7 340.05 89.1C338.45 87.5 336.1 86.7 333 86.7H319.8V104.7ZM468.888 121.95C468.888 124.25 468.738 126.45 468.438 128.55H414.888C415.388 135.85 418.438 139.5 424.038 139.5C427.638 139.5 430.238 137.85 431.838 134.55H467.088C465.888 140.55 463.338 145.95 459.438 150.75C455.638 155.45 450.788 159.2 444.888 162C439.088 164.7 432.688 166.05 425.688 166.05C417.288 166.05 409.788 164.3 403.188 160.8C396.688 157.3 391.588 152.3 387.888 145.8C384.288 139.2 382.488 131.5 382.488 122.7C382.488 113.9 384.288 106.25 387.888 99.75C391.588 93.15 396.688 88.1 403.188 84.6C409.788 81.1 417.288 79.35 425.688 79.35C434.088 79.35 441.538 81.1 448.038 84.6C454.638 88 459.738 92.9 463.338 99.3C467.038 105.7 468.888 113.25 468.888 121.95ZM435.138 114C435.138 111.2 434.238 109.1 432.438 107.7C430.638 106.2 428.388 105.45 425.688 105.45C419.788 105.45 416.338 108.3 415.338 114H435.138ZM474.92 122.7C474.92 113.9 476.72 106.25 480.32 99.75C484.02 93.15 489.12 88.1 495.62 84.6C502.22 81.1 509.72 79.35 518.12 79.35C529.12 79.35 538.37 82.45 545.87 88.65C553.47 94.85 558.27 103.45 560.27 114.45H525.02C523.72 110.05 521.17 107.85 517.37 107.85C514.67 107.85 512.52 109.1 510.92 111.6C509.42 114.1 508.67 117.8 508.67 122.7C508.67 127.6 509.42 131.3 510.92 133.8C512.52 136.3 514.67 137.55 517.37 137.55C521.17 137.55 523.72 135.35 525.02 130.95H560.27C558.27 141.95 553.47 150.55 545.87 156.75C538.37 162.95 529.12 166.05 518.12 166.05C509.72 166.05 502.22 164.3 495.62 160.8C489.12 157.3 484.02 152.3 480.32 145.8C476.72 139.2 474.92 131.5 474.92 122.7ZM566.326 122.7C566.326 113.8 567.826 106.1 570.826 99.6C573.926 93 578.126 88 583.426 84.6C588.726 81.1 594.676 79.35 601.276 79.35C606.776 79.35 611.526 80.5 615.526 82.8C619.526 85 622.576 88.05 624.676 91.95V80.4H657.826V165H624.676V153.45C622.576 157.35 619.526 160.45 615.526 162.75C611.526 164.95 606.776 166.05 601.276 166.05C594.676 166.05 588.726 164.35 583.426 160.95C578.126 157.45 573.926 152.45 570.826 145.95C567.826 139.35 566.326 131.6 566.326 122.7ZM624.676 122.7C624.676 118.2 623.526 114.7 621.226 112.2C618.926 109.7 615.976 108.45 612.376 108.45C608.776 108.45 605.826 109.7 603.526 112.2C601.226 114.7 600.076 118.2 600.076 122.7C600.076 127.2 601.226 130.7 603.526 133.2C605.826 135.7 608.776 136.95 612.376 136.95C615.976 136.95 618.926 135.7 621.226 133.2C623.526 130.7 624.676 127.2 624.676 122.7ZM706.079 91.95C708.179 88.05 711.179 85 715.079 82.8C719.079 80.5 723.829 79.35 729.329 79.35C735.929 79.35 741.879 81.1 747.179 84.6C752.479 88 756.629 93 759.629 99.6C762.729 106.1 764.279 113.8 764.279 122.7C764.279 131.6 762.729 139.35 759.629 145.95C756.629 152.45 752.479 157.45 747.179 160.95C741.879 164.35 735.929 166.05 729.329 166.05C723.829 166.05 719.079 164.95 715.079 162.75C711.179 160.45 708.179 157.35 706.079 153.45V205.5H672.779V80.4H706.079V91.95ZM730.529 122.7C730.529 118.2 729.379 114.7 727.079 112.2C724.779 109.7 721.829 108.45 718.229 108.45C714.629 108.45 711.679 109.7 709.379 112.2C707.079 114.7 705.929 118.2 705.929 122.7C705.929 127.2 707.079 130.7 709.379 133.2C711.679 135.7 714.629 136.95 718.229 136.95C721.829 136.95 724.779 135.7 727.079 133.2C729.379 130.7 730.529 127.2 730.529 122.7ZM808.032 91.95C810.132 88.05 813.132 85 817.032 82.8C821.032 80.5 825.782 79.35 831.282 79.35C837.882 79.35 843.832 81.1 849.132 84.6C854.432 88 858.582 93 861.582 99.6C864.682 106.1 866.232 113.8 866.232 122.7C866.232 131.6 864.682 139.35 861.582 145.95C858.582 152.45 854.432 157.45 849.132 160.95C843.832 164.35 837.882 166.05 831.282 166.05C825.782 166.05 821.032 164.95 817.032 162.75C813.132 160.45 810.132 157.35 808.032 153.45V205.5H774.732V80.4H808.032V91.95ZM832.482 122.7C832.482 118.2 831.332 114.7 829.032 112.2C826.732 109.7 823.782 108.45 820.182 108.45C816.582 108.45 813.632 109.7 811.332 112.2C809.032 114.7 807.882 118.2 807.882 122.7C807.882 127.2 809.032 130.7 811.332 133.2C813.632 135.7 816.582 136.95 820.182 136.95C823.782 136.95 826.732 135.7 829.032 133.2C831.332 130.7 832.482 127.2 832.482 122.7Z" fill="white"/>
<defs>
<linearGradient id="paint0_linear_2_10" x1="56.1884" y1="0" x2="56.1884" y2="224.613" gradientUnits="userSpaceOnUse">
<stop stop-color="#7C04F4"/>
<stop offset="1" stop-color="#DFD2EC" stop-opacity="0.49"/>
</linearGradient>
</defs>
</svg>
